<svg aria-hidden="true" style="position: absolute; width: 0; height: 0; overflow: hidden;" version="1.1" xmlns="http://www.w3.org/2000/svg" xmlns:xlink="http://www.w3.org/1999/xlink">
<defs>
<symbol id="icon-IMAGE" viewBox="0 0 32 32"><path d="M0 24.563v-17.127h32v17.127h-32z"></path></symbol>
<symbol id="icon-instagram" viewBox="0 0 32 32"><path fill="none" stroke="#fff" style="stroke: var(--color1, #fff)" stroke-linejoin="round" stroke-linecap="round" stroke-miterlimit="4" stroke-width="2.6667" d="M22.667 2.667h-13.333c-3.682 0-6.667 2.985-6.667 6.667v13.333c0 3.682 2.985 6.667 6.667 6.667h13.333c3.682 0 6.667-2.985 6.667-6.667v-13.333c0-3.682-2.985-6.667-6.667-6.667z"></path><path fill="none" stroke="#fff" style="stroke: var(--color1, #fff)" stroke-linejoin="round" stroke-linecap="round" stroke-miterlimit="4" stroke-width="2.6667" d="M21.333 15.16c0.165 1.11-0.025 2.243-0.542 3.239s-1.334 1.803-2.336 2.308c-1.002 0.504-2.138 0.68-3.245 0.502s-2.131-0.701-2.924-1.494c-0.793-0.793-1.316-1.816-1.494-2.924s-0.003-2.243 0.502-3.245c0.504-1.002 1.312-1.82 2.307-2.336s2.129-0.706 3.239-0.542c1.132 0.168 2.18 0.695 2.989 1.504s1.337 1.857 1.505 2.989z"></path><path fill="none" stroke="#fff" style="stroke: var(--color1, #fff)" stroke-linejoin="round" stroke-linecap="round" stroke-miterlimit="4" stroke-width="2.6667" d="M23.333 8.667h0.013"></path></symbol>
<symbol id="icon-facebook" viewBox="0 0 32 32"><path fill="none" stroke="#fff" style="stroke: var(--color1, #fff)" stroke-linejoin="round" stroke-linecap="round" stroke-miterlimit="4" stroke-width="2.6667" d="M24 2.667h-4c-1.768 0-3.464 0.702-4.714 1.953s-1.953 2.946-1.953 4.714v4h-4v5.333h4v10.667h5.333v-10.667h4l1.333-5.333h-5.333v-4c0-0.354 0.141-0.693 0.391-0.943s0.589-0.391 0.943-0.391h4v-5.333z"></path></symbol>
<symbol id="icon-twiter" viewBox="0 0 32 32"><path fill="none" stroke="#fff" style="stroke: var(--color1, #fff)" stroke-linejoin="round" stroke-linecap="round" stroke-miterlimit="4" stroke-width="2.6667" d="M30.667 4c-1.277 0.901-2.691 1.589-4.187 2.040-0.803-0.923-1.87-1.578-3.057-1.875s-2.437-0.222-3.58 0.214c-1.143 0.436-2.125 1.213-2.812 2.226s-1.047 2.211-1.031 3.435v1.333c-2.343 0.061-4.665-0.459-6.759-1.513s-3.894-2.609-5.241-4.527c0 0-5.333 12 6.667 17.333-2.746 1.864-6.017 2.799-9.333 2.667 12 6.667 26.667 0 26.667-15.333 0-0.373-0.040-0.747-0.107-1.107 1.361-1.342 2.321-3.036 2.773-4.893z"></path></symbol>
<symbol id="useful__icon2" viewBox="0 0 32 32"><path fill="#fff" style="fill: var(--color1, #fff)" d="M15.659 30c7.732 0 14-6.268 14-14s-6.268-14-14-14c-7.732 0-14 6.268-14 14s6.268 14 14 14z"></path><path fill="#f43e37" style="fill: var(--color2, #f43e37)" d="M16.186 0c-8.576 0-15.527 7.163-15.527 16s6.951 16 15.527 16c8.576 0 15.527-7.163 15.527-16s-6.951-16-15.527-16zM20.996 16.148c0-2.655-2.089-4.808-4.666-4.808s-4.666 2.153-4.666 4.808c0 2.655 2.089 4.808 4.666 4.808v2.748c-4.049 0-7.332-3.383-7.332-7.556s3.283-7.556 7.332-7.556c4.050 0 7.333 3.383 7.333 7.556h-2.666zM25.495 16.148c0-5.216-4.103-9.444-9.166-9.444s-9.165 4.229-9.165 9.444c0 5.216 4.103 9.444 9.165 9.444v3.148c-6.749 0-12.22-5.638-12.22-12.592s5.472-12.592 12.22-12.592c6.749 0 12.221 5.638 12.221 12.592h-3.055z"></path></symbol>
<symbol id="useful__icon4" viewBox="0 0 32 32"><path fill="#FF3502" style="fill: var(--color3, #832BC1)" d="M31.367 27.736c-0.311 0.79-1.029 1.903-2.047 2.686-0.588 0.453-1.289 0.885-2.253 1.171-1.027 0.304-2.293 0.407-3.868 0.407h-14.4c-1.575 0-2.84-0.103-3.868-0.407-0.964-0.285-1.665-0.718-2.253-1.171-1.018-0.784-1.736-1.896-2.047-2.686-0.627-1.592-0.633-3.398-0.633-4.536v-14.4c0-1.138 0.006-2.944 0.633-4.536 0.311-0.79 1.029-1.903 2.047-2.686 0.588-0.453 1.289-0.885 2.253-1.171 1.027-0.304 2.293-0.407 3.868-0.407h14.4c1.575 0 2.84 0.103 3.867 0.407 0.964 0.285 1.665 0.718 2.253 1.171 1.018 0.784 1.736 1.896 2.047 2.686 0.627 1.592 0.633 3.398 0.633 4.536v14.4c-0 1.137-0.006 2.944-0.633 4.536z"></path><path fill="#fff" style="fill: var(--color1, #fff)" d="M18.321 18.393c-0.48-0.507-1.324-0.831-2.319-0.831s-1.839 0.325-2.319 0.831c-0.251 0.264-0.383 0.535-0.425 0.921-0.081 0.748-0.035 1.391 0.052 2.421 0.083 0.981 0.242 2.289 0.449 3.621 0.147 0.948 0.267 1.459 0.376 1.826 0.177 0.594 0.836 1.113 1.868 1.113s1.691-0.519 1.868-1.113c0.109-0.366 0.228-0.878 0.375-1.826 0.207-1.332 0.365-2.64 0.449-3.621 0.088-1.029 0.133-1.673 0.052-2.421-0.042-0.386-0.174-0.657-0.425-0.922zM13.385 13.882c0 1.446 1.172 2.619 2.619 2.619s2.619-1.172 2.619-2.619c0-1.446-1.172-2.619-2.619-2.619s-2.619 1.172-2.619 2.619zM15.972 3.547c-6.125 0.017-11.144 4.986-11.22 11.111-0.062 4.961 3.106 9.205 7.528 10.761 0.107 0.038 0.216-0.051 0.199-0.164-0.058-0.385-0.113-0.772-0.163-1.153-0.018-0.134-0.104-0.25-0.228-0.305-3.495-1.527-5.936-5.033-5.897-9.093 0.051-5.329 4.403-9.673 9.732-9.716 5.448-0.044 9.894 4.375 9.894 9.813 0 4.020-2.43 7.483-5.898 8.998-0.124 0.054-0.209 0.171-0.227 0.305-0.050 0.38-0.105 0.767-0.163 1.152-0.017 0.113 0.092 0.202 0.199 0.164 4.38-1.541 7.529-5.719 7.529-10.619-0-6.216-5.066-11.271-11.286-11.253zM15.768 8.709c3.472-0.134 6.34 2.651 6.34 6.094 0 1.751-0.742 3.332-1.927 4.445-0.101 0.094-0.155 0.228-0.147 0.366 0.024 0.419 0.015 0.826-0.013 1.285-0.008 0.122 0.13 0.201 0.231 0.132 1.988-1.359 3.296-3.643 3.296-6.228 0-4.256-3.545-7.699-7.837-7.533-3.989 0.155-7.189 3.443-7.24 7.435-0.034 2.625 1.282 4.951 3.296 6.326 0.101 0.069 0.238-0.009 0.23-0.132-0.028-0.46-0.037-0.867-0.013-1.286 0.008-0.138-0.046-0.272-0.146-0.366-1.223-1.148-1.973-2.793-1.926-4.609 0.084-3.196 2.661-5.807 5.855-5.93z"></path></symbol>
<symbol id="useful__icon1" viewBox="0 0 32 32"><path fill="#1ed760" style="fill: var(--color4, #1ed760)" d="M15.999 0.053c-8.809 0-15.951 7.142-15.951 15.951s7.142 15.951 15.951 15.951c8.81 0 15.951-7.141 15.951-15.951s-7.141-15.95-15.951-15.95l0-0.001zM23.314 23.058c-0.286 0.469-0.899 0.617-1.368 0.33-3.745-2.288-8.46-2.806-14.012-1.537-0.535 0.122-1.068-0.213-1.19-0.748s0.211-1.069 0.748-1.191c6.076-1.389 11.288-0.791 15.493 1.779 0.469 0.288 0.617 0.899 0.329 1.368zM25.267 18.715c-0.36 0.586-1.126 0.77-1.71 0.41-4.288-2.636-10.823-3.399-15.895-1.86-0.658 0.199-1.352-0.172-1.552-0.829-0.198-0.658 0.173-1.351 0.829-1.551 5.793-1.758 12.995-0.906 17.918 2.119 0.585 0.36 0.77 1.126 0.41 1.71v-0zM25.434 14.192c-5.141-3.054-13.623-3.334-18.531-1.845-0.788 0.239-1.622-0.206-1.861-0.994s0.206-1.622 0.994-1.861c5.635-1.71 15.001-1.38 20.92 2.134 0.71 0.421 0.943 1.336 0.522 2.044-0.419 0.709-1.337 0.943-2.044 0.522h-0.001z"></path></symbol>
<symbol id="useful__icon5" viewBox="0 0 32 32"><path fill="#fff" style="fill: var(--color1, #fff); stroke: var(--color5, #363f46)" stroke="#363f46" stroke-linejoin="miter" stroke-linecap="round" stroke-miterlimit="4" stroke-width="2.4258" d="M15.938 30c7.767 0 14.063-6.296 14.063-14.063s-6.296-14.063-14.063-14.063c-7.767 0-14.063 6.296-14.063 14.063s6.296 14.063 14.063 14.063z"></path><path fill="#fff" style="fill: var(--color1, #fff)" d="M8.303 9.999c0 0-1.945 2.194-1.945 6.027s1.945 5.938 1.945 5.938z"></path><path fill="none" stroke="#fc7e0f" style="stroke: var(--color6, #fc7e0f)" stroke-linejoin="miter" stroke-linecap="round" stroke-miterlimit="4" stroke-width="2.4258" d="M8.303 9.999c0 0-1.945 2.194-1.945 6.027s1.945 5.938 1.945 5.938"></path><path fill="#fff" style="fill: var(--color1, #fff)" d="M23.796 9.999c0 0 1.945 2.194 1.945 6.027s-1.945 5.938-1.945 5.938z"></path><path fill="none" stroke="#fc7e0f" style="stroke: var(--color6, #fc7e0f)" stroke-linejoin="miter" stroke-linecap="round" stroke-miterlimit="4" stroke-width="2.4258" d="M23.796 9.999c0 0 1.945 2.194 1.945 6.027s-1.945 5.938-1.945 5.938"></path><path fill="#fff" style="fill: var(--color1, #fff)" d="M20.694 12.563c0 0 1.31 1.631 1.278 3.455-0.040 2.194-1.262 3.399-1.262 3.399z"></path><path fill="none" stroke="#fc7e0f" style="stroke: var(--color6, #fc7e0f)" stroke-linejoin="miter" stroke-linecap="round" stroke-miterlimit="4" stroke-width="2.4258" d="M20.694 12.563c0 0 1.31 1.631 1.278 3.455-0.040 2.194-1.262 3.399-1.262 3.399"></path><path fill="#fff" style="fill: var(--color1, #fff)" d="M11.341 12.563c0 0-1.31 1.631-1.278 3.455 0.040 2.194 1.262 3.399 1.262 3.399z"></path><path fill="none" stroke="#fc7e0f" style="stroke: var(--color6, #fc7e0f)" stroke-linejoin="miter" stroke-linecap="round" stroke-miterlimit="4" stroke-width="2.4258" d="M11.341 12.563c0 0-1.31 1.631-1.278 3.455 0.040 2.194 1.262 3.399 1.262 3.399"></path><path fill="#363f46" style="fill: var(--color5, #363f46)" d="M15.936 18.121c1.206 0 2.183-0.977 2.183-2.183s-0.977-2.183-2.183-2.183c-1.206 0-2.183 0.977-2.183 2.183s0.977 2.183 2.183 2.183z"></path><path fill="#363f46" style="fill: var(--color5, #363f46)" d="M16.305 17.977l-1.549-0.416-2.579 9.632 1.549 0.416 2.579-9.632z"></path><path fill="#363f46" style="fill: var(--color5, #363f46)" d="M15.705 17.964l1.542-0.409 2.565 9.639-1.542 0.409-2.565-9.639z"></path><path fill="#363f46" style="fill: var(--color5, #363f46)" d="M14.273 23.162l0.573-0.587 3.97 3.868-0.573 0.587-3.97-3.868z"></path><path fill="#363f46" style="fill: var(--color5, #363f46)" d="M17.635 23.183l-0.518-0.525-3.936 3.909 0.518 0.525 3.936-3.909z"></path></symbol>
<symbol id="useful__icon3" viewBox="0 0 32 32"><path fill="#FF3502" style="fill: var(--color3, #FF3502)" d="M31.659 16c0 8.889-7.133 16-15.767 16s-15.892-7.111-15.892-16 7.133-16 15.767-16c8.634 0 15.892 7.111 15.892 16z"></path><path fill="#fff" style="fill: var(--color1, #fff)" d="M4.67 17.069c0.006-0.053 0.044-0.090 0.091-0.090 0.046 0 0.083 0.037 0.090 0.090l0.196 1.277-0.196 1.255c-0.007 0.053-0.045 0.089-0.090 0.089-0.047 0-0.085-0.037-0.091-0.090l-0.166-1.255 0.166-1.277z"></path><path fill="#fff" style="fill: var(--color1, #fff)" d="M5.598 16.189c0.048 0 0.086 0.038 0.094 0.093l0.253 2.064-0.253 2.019c-0.008 0.055-0.047 0.093-0.094 0.093s-0.088-0.039-0.094-0.093l-0.223-2.019 0.223-2.064c0.007-0.054 0.046-0.093 0.094-0.093z"></path><path fill="#fff" style="fill: var(--color1, #fff)" d="M9.030 14.55c0.004-0.096 0.080-0.172 0.171-0.172s0.166 0.076 0.171 0.172l0.2 3.798-0.2 2.455v-0.001c-0.005 0.096-0.081 0.172-0.171 0.172s-0.167-0.076-0.171-0.172l-0.177-2.454 0.177-3.798z"></path><path fill="#fff" style="fill: var(--color1, #fff)" d="M7.252 15.83c0.006-0.076 0.063-0.133 0.133-0.133s0.127 0.057 0.133 0.132l0.227 2.517-0.227 2.435c-0.006 0.075-0.063 0.132-0.133 0.132s-0.128-0.057-0.133-0.132l-0.2-2.435 0.2-2.516z"></path><path fill="#fff" style="fill: var(--color1, #fff)" d="M11.257 20.762c-0.005 0.119-0.097 0.211-0.21 0.211s-0.206-0.093-0.21-0.211l-0.154-2.414 0.154-5.056c0.004-0.119 0.096-0.212 0.21-0.212s0.205 0.093 0.21 0.211l0.174 5.056-0.174 2.413z"></path><path fill="#fff" style="fill: var(--color1, #fff)" d="M15.112 20.694c-0.003 0.16-0.132 0.29-0.287 0.29s-0.285-0.13-0.287-0.289c0 0-0.108-2.344-0.108-2.347l0.108-5.838c0.002-0.16 0.131-0.291 0.287-0.291s0.285 0.131 0.287 0.29l0.121 5.84-0.121 2.344z"></path><path fill="#fff" style="fill: var(--color1, #fff)" d="M13.17 20.724c-0.004 0.141-0.113 0.251-0.249 0.251s-0.246-0.11-0.249-0.25l-0.132-2.376 0.131-5.093c0.003-0.141 0.112-0.251 0.249-0.251 0.136 0 0.245 0.11 0.249 0.251l0.148 5.093-0.148 2.377v-0.002z"></path><path fill="#fff" style="fill: var(--color1, #fff)" d="M8.442 20.801c-0.006 0.086-0.071 0.152-0.152 0.152-0.082 0-0.147-0.066-0.152-0.152l-0.188-2.455 0.188-2.334c0.005-0.087 0.070-0.152 0.152-0.152s0.146 0.065 0.152 0.151l0.214 2.335-0.214 2.455z"></path><path fill="#fff" style="fill: var(--color1, #fff)" d="M6.602 20.706c-0.007 0.065-0.055 0.113-0.114 0.113-0.060 0-0.108-0.047-0.114-0.113l-0.211-2.36 0.211-2.449c0.006-0.065 0.054-0.113 0.114-0.113s0.107 0.047 0.114 0.113l0.24 2.449-0.24 2.36z"></path><path fill="#fff" style="fill: var(--color1, #fff)" d="M13.601 13.443c0.003-0.152 0.121-0.271 0.268-0.271s0.264 0.119 0.268 0.271l0.134 4.908-0.134 2.361v-0.002c-0.003 0.152-0.121 0.271-0.268 0.271s-0.265-0.119-0.268-0.269l-0.12-2.361 0.12-4.907z"></path><path fill="#fff" style="fill: var(--color1, #fff)" d="M10.312 20.786c-0.005 0.108-0.089 0.192-0.191 0.192-0.103 0-0.187-0.084-0.191-0.191l-0.166-2.439 0.166-4.667c0.004-0.107 0.088-0.192 0.191-0.192 0.102 0 0.186 0.084 0.191 0.192l0.187 4.667-0.187 2.438z"></path><path fill="#fff" style="fill: var(--color1, #fff)" d="M12.21 20.748v-0c-0.004 0.129-0.105 0.23-0.229 0.23s-0.226-0.102-0.229-0.23l-0.143-2.399 0.143-5.226c0.003-0.13 0.104-0.232 0.229-0.232s0.225 0.102 0.229 0.232l0.161 5.227-0.161 2.398v0.001c0-0 0-0 0-0.001v0.001z"></path><path fill="#fff" style="fill: var(--color1, #fff)" d="M23.291 15.556c0.332-0.141 0.696-0.219 1.078-0.219 1.538 0 2.786 1.266 2.786 2.828s-1.247 2.827-2.786 2.827c-0.050 0-7.716-0.004-7.723-0.005-0.166-0.017-0.299-0.161-0.301-0.334v-8.973c0.002-0.165 0.058-0.25 0.268-0.332 0.541-0.212 1.154-0.338 1.782-0.338 2.569 0 4.674 1.999 4.896 4.547z"></path><path fill="#fff" style="fill: var(--color1, #fff)" d="M15.469 11.982c0.002-0.171 0.14-0.311 0.307-0.311s0.304 0.139 0.307 0.31l0.137 6.369-0.137 2.312v-0.003c-0.003 0.171-0.14 0.311-0.307 0.311s-0.305-0.139-0.307-0.308l-0.126-2.311 0.126-6.369z"></path></symbol>
<symbol id="icon-star" viewBox="0 0 32 32"><path fill="#fcff51" style="fill: var(--color7, #fcff51)" d="M16.023 25.24l7.378 4.462c1.351 0.818 3.004-0.391 2.649-1.92l-1.956-8.391 6.524-5.653c1.191-1.031 0.551-2.987-1.013-3.111l-8.587-0.729-3.36-7.929c-0.604-1.44-2.667-1.44-3.271 0l-3.36 7.911-8.587 0.729c-1.564 0.124-2.204 2.080-1.013 3.111l6.524 5.653-1.956 8.391c-0.356 1.529 1.298 2.738 2.649 1.92l7.378-4.444z"></path></symbol>
</defs>
</svg>
